<svg width="41" height="41" viewBox="0 0 41 41" fill="none" xmlns="http://www.w3.org/2000/svg">
<g clip-path="url(#clip0_236_36)">
<path fill-rule="evenodd" clip-rule="evenodd" d="M26.4612 12.0283C24.8167 10.9295 22.8833 10.343 20.9055 10.343V0.342979C24.8611 0.342979 28.7279 1.51596 32.0169 3.71359C35.3059 5.91121 37.8693 9.03479 39.3831 12.6893C40.8968 16.3438 41.2929 20.3652 40.5212 24.2448C39.7495 28.1244 37.8447 31.6881 35.0476 34.4851C32.2506 37.2822 28.6869 39.187 24.8073 39.9587C20.9277 40.7304 16.9063 40.3343 13.2518 38.8206C9.59733 37.3068 6.47375 34.7434 4.27613 31.4544C2.0785 28.1654 0.905518 24.2986 0.905518 20.343H10.9055C10.9055 22.3208 11.492 24.2542 12.5908 25.8987C13.6896 27.5432 15.2514 28.8249 17.0787 29.5818C18.9059 30.3387 20.9166 30.5367 22.8564 30.1508C24.7962 29.765 26.578 28.8126 27.9766 27.4141C29.3751 26.0155 30.3275 24.2337 30.7133 22.2939C31.0992 20.3541 30.9012 18.3434 30.1443 16.5162C29.3874 14.6889 28.1057 13.1271 26.4612 12.0283Z" fill="#6DE9F3"/>
<path fill-rule="evenodd" clip-rule="evenodd" d="M10.9055 0.342984C10.9055 1.6562 10.6469 2.95656 10.1443 4.16981C9.64176 5.38307 8.90517 6.48546 7.97658 7.41405C7.048 8.34264 5.94561 9.07923 4.73235 9.58178C3.51909 10.0843 2.21873 10.343 0.905518 10.343L0.905518 20.343C3.53195 20.343 6.13267 19.8257 8.55919 18.8206C10.9857 17.8155 13.1905 16.3423 15.0476 14.4851C16.9048 12.628 18.378 10.4232 19.3831 7.99665C20.3882 5.57013 20.9055 2.96941 20.9055 0.342979L10.9055 0.342984Z" fill="#6DE9F3"/>
</g>
<defs>
<clipPath id="clip0_236_36">
<rect width="40" height="40" fill="white" transform="translate(0.905518 0.342979)"/>
</clipPath>
</defs>
</svg>
