<svg width="136" height="40" viewBox="0 0 136 40" fill="none" xmlns="http://www.w3.org/2000/svg">
<g clip-path="url(#clip0_235_35)">
<path fill-rule="evenodd" clip-rule="evenodd" d="M26.2806 11.6929C24.6361 10.5941 22.7027 10.0076 20.7249 10.0076V0.00763702C24.6805 0.00763702 28.5473 1.18062 31.8363 3.37825C35.1253 5.57587 37.6887 8.69945 39.2025 12.3539C40.7162 16.0084 41.1123 20.0298 40.3406 23.9094C39.5689 27.789 37.6641 31.3527 34.867 34.1497C32.07 36.9468 28.5063 38.8516 24.6267 39.6233C20.7471 40.395 16.7257 39.9989 13.0712 38.4852C9.41666 36.9714 6.29308 34.408 4.09546 31.119C1.89783 27.83 0.724854 23.9632 0.724854 20.0076H10.7249C10.7249 21.9854 11.3114 23.9188 12.4102 25.5633C13.509 27.2078 15.0708 28.4895 16.8981 29.2464C18.7253 30.0033 20.736 30.2013 22.6758 29.8154C24.6156 29.4296 26.3974 28.4772 27.796 27.0787C29.1945 25.6801 30.1469 23.8983 30.5327 21.9585C30.9186 20.0187 30.7206 18.008 29.9637 16.1808C29.2068 14.3535 27.9251 12.7917 26.2806 11.6929Z" fill="#6DE9F3"/>
<path fill-rule="evenodd" clip-rule="evenodd" d="M10.7248 0.00764136C10.7248 1.32086 10.4662 2.62122 9.96365 3.83447C9.4611 5.04773 8.72451 6.15012 7.79592 7.07871C6.86734 8.0073 5.76495 8.74389 4.55169 9.24644C3.33843 9.74898 2.03807 10.0076 0.724854 10.0076L0.724854 20.0076C3.35129 20.0076 5.95201 19.4903 8.37853 18.4852C10.805 17.4801 13.0098 16.0069 14.8669 14.1497C16.7241 12.2926 18.1973 10.0878 19.2024 7.66131C20.2075 5.23479 20.7248 2.63407 20.7248 0.00763702L10.7248 0.00764136Z" fill="#6DE9F3"/>
</g>
<path d="M49.128 29V26.696H51.384V14.504H49.128V12.2H57.648C58.656 12.2 59.536 12.376 60.288 12.728C61.04 13.064 61.624 13.552 62.04 14.192C62.472 14.816 62.688 15.56 62.688 16.424V16.664C62.688 17.432 62.544 18.064 62.256 18.56C61.968 19.056 61.616 19.44 61.2 19.712C60.8 19.984 60.416 20.176 60.048 20.288V20.672C60.416 20.768 60.808 20.96 61.224 21.248C61.656 21.52 62.016 21.904 62.304 22.4C62.608 22.896 62.76 23.544 62.76 24.344V24.584C62.76 25.512 62.544 26.304 62.112 26.96C61.68 27.616 61.08 28.12 60.312 28.472C59.56 28.824 58.688 29 57.696 29H49.128ZM54 26.648H57.384C58.248 26.648 58.928 26.44 59.424 26.024C59.92 25.608 60.168 25.032 60.168 24.296V24.08C60.168 23.344 59.92 22.768 59.424 22.352C58.944 21.936 58.264 21.728 57.384 21.728H54V26.648ZM54 19.352H57.384C58.2 19.352 58.856 19.152 59.352 18.752C59.848 18.336 60.096 17.776 60.096 17.072V16.832C60.096 16.128 59.848 15.576 59.352 15.176C58.872 14.76 58.216 14.552 57.384 14.552H54V19.352ZM69.4101 29.336C68.5621 29.336 67.8021 29.192 67.1301 28.904C66.4741 28.616 65.9461 28.192 65.5461 27.632C65.1621 27.072 64.9701 26.392 64.9701 25.592C64.9701 24.776 65.1621 24.104 65.5461 23.576C65.9461 23.032 66.4821 22.624 67.1541 22.352C67.8421 22.08 68.6181 21.944 69.4821 21.944H73.0821V21.176C73.0821 20.488 72.8741 19.936 72.4581 19.52C72.0421 19.104 71.4021 18.896 70.5381 18.896C69.6901 18.896 69.0421 19.096 68.5941 19.496C68.1461 19.896 67.8501 20.416 67.7061 21.056L65.4021 20.312C65.5941 19.672 65.8981 19.096 66.3141 18.584C66.7461 18.056 67.3141 17.632 68.0181 17.312C68.7221 16.992 69.5701 16.832 70.5621 16.832C72.0981 16.832 73.3061 17.224 74.1861 18.008C75.0661 18.792 75.5061 19.904 75.5061 21.344V26.216C75.5061 26.696 75.7301 26.936 76.1781 26.936H77.1861V29H75.3381C74.7781 29 74.3221 28.856 73.9701 28.568C73.6181 28.28 73.4421 27.888 73.4421 27.392V27.32H73.0821C72.9541 27.56 72.7621 27.84 72.5061 28.16C72.2501 28.48 71.8741 28.76 71.3781 29C70.8821 29.224 70.2261 29.336 69.4101 29.336ZM69.7701 27.296C70.7621 27.296 71.5621 27.016 72.1701 26.456C72.7781 25.88 73.0821 25.096 73.0821 24.104V23.864H69.6261C68.9701 23.864 68.4421 24.008 68.0421 24.296C67.6421 24.568 67.4421 24.976 67.4421 25.52C67.4421 26.064 67.6501 26.496 68.0661 26.816C68.4821 27.136 69.0501 27.296 69.7701 27.296ZM79.5896 29V17.168H82.0136V18.944H82.3976C82.6216 18.464 83.0216 18.016 83.5976 17.6C84.1736 17.184 85.0296 16.976 86.1656 16.976C87.0616 16.976 87.8536 17.176 88.5416 17.576C89.2456 17.976 89.7976 18.544 90.1976 19.28C90.5976 20 90.7976 20.872 90.7976 21.896V29H88.3256V22.088C88.3256 21.064 88.0696 20.312 87.5576 19.832C87.0456 19.336 86.3416 19.088 85.4456 19.088C84.4216 19.088 83.5976 19.424 82.9736 20.096C82.3656 20.768 82.0616 21.744 82.0616 23.024V29H79.5896ZM94.3553 29V12.2H96.8273V21.776H97.2113L101.867 17.168H105.155L99.1793 22.904L105.347 29H102.083L97.2113 24.08H96.8273V29H94.3553ZM107.574 29V17.168H110.046V29H107.574ZM108.822 15.56C108.342 15.56 107.934 15.408 107.598 15.104C107.278 14.784 107.118 14.376 107.118 13.88C107.118 13.384 107.278 12.984 107.598 12.68C107.934 12.36 108.342 12.2 108.822 12.2C109.318 12.2 109.726 12.36 110.046 12.68C110.366 12.984 110.526 13.384 110.526 13.88C110.526 14.376 110.366 14.784 110.046 15.104C109.726 15.408 109.318 15.56 108.822 15.56ZM118.563 29.336C117.059 29.336 115.811 29 114.819 28.328C113.827 27.656 113.219 26.64 112.995 25.28L115.299 24.728C115.427 25.384 115.643 25.904 115.947 26.288C116.251 26.672 116.627 26.944 117.075 27.104C117.539 27.264 118.035 27.344 118.563 27.344C119.347 27.344 119.947 27.192 120.363 26.888C120.795 26.584 121.011 26.192 121.011 25.712C121.011 25.232 120.811 24.88 120.411 24.656C120.011 24.432 119.419 24.248 118.635 24.104L117.819 23.96C117.019 23.816 116.291 23.608 115.635 23.336C114.979 23.064 114.459 22.688 114.075 22.208C113.691 21.728 113.499 21.112 113.499 20.36C113.499 19.24 113.915 18.376 114.747 17.768C115.579 17.144 116.683 16.832 118.059 16.832C119.387 16.832 120.475 17.136 121.323 17.744C122.187 18.336 122.747 19.144 123.003 20.168L120.699 20.816C120.555 20.096 120.251 19.592 119.787 19.304C119.323 19 118.747 18.848 118.059 18.848C117.387 18.848 116.859 18.976 116.475 19.232C116.091 19.472 115.899 19.816 115.899 20.264C115.899 20.744 116.083 21.096 116.451 21.32C116.835 21.544 117.347 21.712 117.987 21.824L118.827 21.968C119.675 22.112 120.451 22.312 121.155 22.568C121.859 22.824 122.411 23.192 122.811 23.672C123.227 24.152 123.435 24.792 123.435 25.592C123.435 26.776 122.995 27.696 122.115 28.352C121.235 29.008 120.051 29.336 118.563 29.336ZM130.506 29C129.786 29 129.21 28.784 128.778 28.352C128.362 27.92 128.154 27.344 128.154 26.624V19.256H124.89V17.168H128.154V13.256H130.626V17.168H134.154V19.256H130.626V26.192C130.626 26.672 130.85 26.912 131.298 26.912H133.77V29H130.506Z" fill="white"/>
<defs>
<clipPath id="clip0_235_35">
<rect width="40" height="40" fill="white" transform="translate(0.724854 0.00763702)"/>
</clipPath>
</defs>
</svg>
