<svg width="94" height="30" viewBox="0 0 94 30" fill="none" xmlns="http://www.w3.org/2000/svg">
<g clip-path="url(#clip0_237_40)">
<path fill-rule="evenodd" clip-rule="evenodd" d="M19.1668 8.76397C17.9334 7.93987 16.4833 7.5 15 7.5V0C17.9667 0 20.8668 0.879735 23.3335 2.52796C25.8003 4.17617 27.7228 6.51886 28.8582 9.25972C29.9935 12.0006 30.2905 15.0166 29.7118 17.9263C29.133 20.836 27.7044 23.5088 25.6066 25.6066C23.5088 27.7044 20.836 29.133 17.9263 29.7118C15.0166 30.2905 12.0006 29.9935 9.25972 28.8582C6.51886 27.7228 4.17617 25.8003 2.52796 23.3335C0.879735 20.8668 0 17.9667 0 15H7.5C7.5 16.4833 7.93987 17.9334 8.76397 19.1668C9.58807 20.4001 10.7594 21.3614 12.1299 21.9291C13.5003 22.4968 15.0083 22.6453 16.4632 22.3558C17.918 22.0665 19.2544 21.3522 20.3033 20.3033C21.3522 19.2544 22.0665 17.918 22.3558 16.4632C22.6453 15.0083 22.4968 13.5003 21.9291 12.1299C21.3614 10.7594 20.4001 9.58807 19.1668 8.76397Z" fill="#6DE9F3"/>
<path fill-rule="evenodd" clip-rule="evenodd" d="M7.5 3.24844e-06C7.5 0.984918 7.30601 1.96019 6.9291 2.87013C6.55218 3.78007 5.99974 4.60686 5.3033 5.30331C4.60686 5.99975 3.78007 6.55219 2.87013 6.9291C1.96018 7.30601 0.984911 7.5 3.27832e-07 7.5L0 15C1.96983 15 3.92037 14.612 5.74026 13.8582C7.56015 13.1044 9.21375 11.9995 10.6066 10.6066C11.9995 9.21375 13.1044 7.56015 13.8582 5.74026C14.612 3.92037 15 1.96983 15 0L7.5 3.24844e-06Z" fill="#6DE9F3"/>
</g>
<path d="M35.752 21V19.464H37.256V11.336H35.752V9.8H41.432C42.104 9.8 42.6907 9.91733 43.192 10.152C43.6933 10.376 44.0827 10.7013 44.36 11.128C44.648 11.544 44.792 12.04 44.792 12.616V12.776C44.792 13.288 44.696 13.7093 44.504 14.04C44.312 14.3707 44.0773 14.6267 43.8 14.808C43.5333 14.9893 43.2773 15.1173 43.032 15.192V15.448C43.2773 15.512 43.5387 15.64 43.816 15.832C44.104 16.0133 44.344 16.2693 44.536 16.6C44.7387 16.9307 44.84 17.3627 44.84 17.896V18.056C44.84 18.6747 44.696 19.2027 44.408 19.64C44.12 20.0773 43.72 20.4133 43.208 20.648C42.7067 20.8827 42.1253 21 41.464 21H35.752ZM39 19.432H41.256C41.832 19.432 42.2853 19.2933 42.616 19.016C42.9467 18.7387 43.112 18.3547 43.112 17.864V17.72C43.112 17.2293 42.9467 16.8453 42.616 16.568C42.296 16.2907 41.8427 16.152 41.256 16.152H39V19.432ZM39 14.568H41.256C41.8 14.568 42.2373 14.4347 42.568 14.168C42.8987 13.8907 43.064 13.5173 43.064 13.048V12.888C43.064 12.4187 42.8987 12.0507 42.568 11.784C42.248 11.5067 41.8107 11.368 41.256 11.368H39V14.568ZM49.2734 21.224C48.708 21.224 48.2014 21.128 47.7534 20.936C47.316 20.744 46.964 20.4613 46.6974 20.088C46.4414 19.7147 46.3134 19.2613 46.3134 18.728C46.3134 18.184 46.4414 17.736 46.6974 17.384C46.964 17.0213 47.3214 16.7493 47.7694 16.568C48.228 16.3867 48.7454 16.296 49.3214 16.296H51.7214V15.784C51.7214 15.3253 51.5827 14.9573 51.3054 14.68C51.028 14.4027 50.6014 14.264 50.0254 14.264C49.46 14.264 49.028 14.3973 48.7294 14.664C48.4307 14.9307 48.2334 15.2773 48.1374 15.704L46.6014 15.208C46.7294 14.7813 46.932 14.3973 47.2094 14.056C47.4974 13.704 47.876 13.4213 48.3454 13.208C48.8147 12.9947 49.38 12.888 50.0414 12.888C51.0654 12.888 51.8707 13.1493 52.4574 13.672C53.044 14.1947 53.3374 14.936 53.3374 15.896V19.144C53.3374 19.464 53.4867 19.624 53.7854 19.624H54.4574V21H53.2254C52.852 21 52.548 20.904 52.3134 20.712C52.0787 20.52 51.9614 20.2587 51.9614 19.928V19.88H51.7214C51.636 20.04 51.508 20.2267 51.3374 20.44C51.1667 20.6533 50.916 20.84 50.5854 21C50.2547 21.1493 49.8174 21.224 49.2734 21.224ZM49.5134 19.864C50.1747 19.864 50.708 19.6773 51.1134 19.304C51.5187 18.92 51.7214 18.3973 51.7214 17.736V17.576H49.4174C48.98 17.576 48.628 17.672 48.3614 17.864C48.0947 18.0453 47.9614 18.3173 47.9614 18.68C47.9614 19.0427 48.1 19.3307 48.3774 19.544C48.6547 19.7573 49.0334 19.864 49.5134 19.864ZM56.0598 21V13.112H57.6758V14.296H57.9318C58.0811 13.976 58.3478 13.6773 58.7318 13.4C59.1158 13.1227 59.6864 12.984 60.4438 12.984C61.0411 12.984 61.5691 13.1173 62.0278 13.384C62.4971 13.6507 62.8651 14.0293 63.1318 14.52C63.3984 15 63.5318 15.5813 63.5318 16.264V21H61.8838V16.392C61.8838 15.7093 61.7131 15.208 61.3718 14.888C61.0304 14.5573 60.5611 14.392 59.9638 14.392C59.2811 14.392 58.7318 14.616 58.3158 15.064C57.9104 15.512 57.7078 16.1627 57.7078 17.016V21H56.0598ZM65.9035 21V9.8H67.5515V16.184H67.8075L70.9115 13.112H73.1035L69.1195 16.936L73.2315 21H71.0555L67.8075 17.72H67.5515V21H65.9035ZM74.716 21V13.112H76.364V21H74.716ZM75.548 12.04C75.228 12.04 74.956 11.9387 74.732 11.736C74.5187 11.5227 74.412 11.2507 74.412 10.92C74.412 10.5893 74.5187 10.3227 74.732 10.12C74.956 9.90667 75.228 9.8 75.548 9.8C75.8787 9.8 76.1507 9.90667 76.364 10.12C76.5773 10.3227 76.684 10.5893 76.684 10.92C76.684 11.2507 76.5773 11.5227 76.364 11.736C76.1507 11.9387 75.8787 12.04 75.548 12.04ZM82.0418 21.224C81.0391 21.224 80.2071 21 79.5458 20.552C78.8844 20.104 78.4791 19.4267 78.3298 18.52L79.8658 18.152C79.9511 18.5893 80.0951 18.936 80.2978 19.192C80.5004 19.448 80.7511 19.6293 81.0498 19.736C81.3591 19.8427 81.6898 19.896 82.0418 19.896C82.5644 19.896 82.9644 19.7947 83.2418 19.592C83.5298 19.3893 83.6738 19.128 83.6738 18.808C83.6738 18.488 83.5404 18.2533 83.2738 18.104C83.0071 17.9547 82.6124 17.832 82.0898 17.736L81.5458 17.64C81.0124 17.544 80.5271 17.4053 80.0898 17.224C79.6524 17.0427 79.3058 16.792 79.0498 16.472C78.7938 16.152 78.6658 15.7413 78.6658 15.24C78.6658 14.4933 78.9431 13.9173 79.4978 13.512C80.0524 13.096 80.7884 12.888 81.7057 12.888C82.5911 12.888 83.3164 13.0907 83.8818 13.496C84.4578 13.8907 84.8311 14.4293 85.0018 15.112L83.4658 15.544C83.3698 15.064 83.1671 14.728 82.8578 14.536C82.5484 14.3333 82.1644 14.232 81.7057 14.232C81.2578 14.232 80.9058 14.3173 80.6498 14.488C80.3938 14.648 80.2658 14.8773 80.2658 15.176C80.2658 15.496 80.3884 15.7307 80.6338 15.88C80.8898 16.0293 81.2311 16.1413 81.6578 16.216L82.2178 16.312C82.7831 16.408 83.3004 16.5413 83.7698 16.712C84.2391 16.8827 84.6071 17.128 84.8738 17.448C85.1511 17.768 85.2898 18.1947 85.2898 18.728C85.2898 19.5173 84.9964 20.1307 84.4098 20.568C83.8231 21.0053 83.0338 21.224 82.0418 21.224ZM90.0041 21C89.5241 21 89.1401 20.856 88.8521 20.568C88.5748 20.28 88.4361 19.896 88.4361 19.416V14.504H86.2601V13.112H88.4361V10.504H90.0841V13.112H92.4361V14.504H90.0841V19.128C90.0841 19.448 90.2335 19.608 90.5321 19.608H92.1801V21H90.0041Z" fill="white"/>
<defs>
<clipPath id="clip0_237_40">
<rect width="30" height="30" fill="white"/>
</clipPath>
</defs>
</svg>
